{"title":"Usher ft Pitbull - DJ Got Us Fallin In Love Again [KingPinVideos","uid":5787761,"size":89732760,"categoryP":"video","categoryS":"music_videos","magnet":"?xt=urn:btih:f523f6bfc82bcd1b1a19363575fb25330253ffee&amp;dn=Usher+ft+Pitbull+-+DJ+Got+Us+Fallin+In+Love+Again+%5BKingPinVideos&amp;tr=udp%3A%2F%2Ftracker.openbittorrent.com%3A80&amp;tr=udp%3A%2F%2Fopen.demonii.com%3A1337&amp;tr=udp%3A%2F%2Ftracker.coppersurfer.tk%3A6969&amp;tr=udp%3A%2F%2Fexodus.desync.com%3A6969","seeders":0,"leechers":0,"uploader":"KingPinMan","files":4,"time":1282712407,"description":"[img]http://a.imageshack.us/img299/9056/usherdj.png[/img]\n\n[img]http://a.imageshack.us/img163/6535/usherdj2.png[/img]\n\n[code]General\nComplete name                    : Usher ft Pitbull - DJ Got Us Fallin In Love Again [KingPinVideos].mpg\nFormat                           : MPEG-PS\nFile size                        : 85.6 MiB\nDuration                         : 4mn 11s\nOverall bit rate                 : 2 856 Kbps\nWriting library                  : encoded by TMPGEnc 4.0 XPress Version. 4.7.4.299\n\nVideo\nID                               : 224 (0xE0)\nFormat                           : MPEG Video\nFormat version                   : Version 1\nFormat settings, BVOP            : Yes\nFormat settings, Matrix          : Default\nDuration                         : 4mn 11s\nBit rate mode                    : Constant\nBit rate                         : 2 615 Kbps\nNominal bit rate                 : 2 700 Kbps\nWidth                            : 384 pixels\nHeight                           : 208 pixels\nDisplay aspect ratio             : 16:9\nFrame rate                       : 29.970 fps\nResolution                       : 8 bits\nScan type                        : Progressive\nBits/(Pixel*Frame)               : 1.092\nStream size                      : 78.3 MiB (92%)\nWriting library                  : TMPGEnc XPress 4.7.4.299\n\nAudio\nID                               : 192 (0xC0)\nFormat                           : MPEG Audio\nFormat version                   : Version 1\nFormat profile                   : Layer 2\nDuration                         : 4mn 11s\nBit rate mode                    : Constant\nBit rate                         : 128 Kbps\nChannel(s)                       : 2 channels\nSampling rate                    : 48.0 KHz\nStream size                      : 3.83 MiB (4%)[/code]","torrent":{"xt":"urn:btih:f523f6bfc82bcd1b1a19363575fb25330253ffee","amp;dn":"Usher+ft+Pitbull+-+DJ+Got+Us+Fallin+In+Love+Again+%5BKingPinVideos","amp;tr":["udp%3A%2F%2Ftracker.openbittorrent.com%3A80","udp%3A%2F%2Fopen.demonii.com%3A1337","udp%3A%2F%2Ftracker.coppersurfer.tk%3A6969","udp%3A%2F%2Fexodus.desync.com%3A6969"],"infoHash":"f523f6bfc82bcd1b1a19363575fb25330253ffee","infoHashBuffer":{"type":"Buffer","data":[245,35,246,191,200,43,205,27,26,25,54,53,117,251,37,51,2,83,255,238]},"announce":[],"urlList":[]}}